# xmcd
#
# Track frame offsets: 
#        150
#        17723
#        29700
#        43667
#        65132
#        80789
#        95909
#        107699
#        126392
#        141476
#        162365
#        176629
#        190437
#        205826
#        220477
#        244113
#        257643
#        269385
#        287139
#        302042
#        323024
#        335878
#        351075
#
# Disc length: 4954 seconds
#
# Revision: 3
# Processed by: cddbd v1.5.2PL0 Copyright (c) Steve Scherf et al.
# Submitted via: ExactAudioCopyFreeDBPlugin 1.0
#
DISCID=7d135817
DTITLE=Various Artist - Sweet Soul Music:  411 Scorching Classics, 19
DTITLE=61-1975 [Bear Family]
DYEAR=2014
DGENRE=Soul
TTITLE0=Eddie Kendricks - Boogie Down
TTITLE1=Bobby Womack - Lookin' for a Love
TTITLE2=Earth, Wind and Fire - Mighty Mighty
TTITLE3=The Stylistics - You Make Me Feel Brand New
TTITLE4=William DeVaughn - Be Thankful for What You Got
TTITLE5=James Brown - The Payback, Part 1
TTITLE6=The Jackson 5 - Dancing Machine
TTITLE7=Blue Magic - Sideshow
TTITLE8=George McCrea - Rock Your Baby
TTITLE9=Kool and The Gang - Hollywood Swinging
TTITLE10=The Hues Corporation - Rock the Boat
TTITLE11=Yvonne Fair - Funky Music Sho Nuff Turns Me On
TTITLE12=Johnny Bristol - Hang on in There Baby
TTITLE13=B.T. Express - Do It ('Til You're Satisfied)
TTITLE14=Latimore - Let's Straighten it Out
TTITLE15=The Three Degrees - When Will I See You Again
TTITLE16=Carl Carlton - Everlasting Love
TTITLE17=Shirley Brown - Woman to Woman
TTITLE18=Bobby Bland - I Wouldn't Treat a Dog (The Way You Treated Me)
TTITLE19=Rufus and Chacka Khan - You Got the Love
TTITLE20=The Tymes - You Little Trustmaker
TTITLE21=Candi Stanton - As Long as He Takes Care of Home
TTITLE22=The Ohio Players - Fire
EXTD=
EXTT0=
EXTT1=
EXTT2=
EXTT3=
EXTT4=
EXTT5=
EXTT6=
EXTT7=
EXTT8=
EXTT9=
EXTT10=
EXTT11=
EXTT12=
EXTT13=
EXTT14=
EXTT15=
EXTT16=
EXTT17=
EXTT18=
EXTT19=
EXTT20=
EXTT21=
EXTT22=
PLAYORDER=
